{
	"asset":{
		"generator":"Khronos glTF Blender I/O v4.1.63",
		"version":"2.0"
	},
	"scene":0,
	"scenes":[
		{
			"name":"Scene",
			"nodes":[
				0,
				1,
				2,
				3,
				4,
				5,
				6,
				7,
				8,
				9,
				10
			]
		}
	],
	"nodes":[
		{
			"name":"Empty",
			"translation":[
				0.24638570845127106,
				0,
				0.010699508711695671
			]
		},
		{
			"mesh":0,
			"name":"sol"
		},
		{
			"mesh":1,
			"name":"Jupiter"
		},
		{
			"mesh":2,
			"name":"saturno"
		},
		{
			"mesh":3,
			"name":"urano"
		},
		{
			"mesh":4,
			"name":"neptuno"
		},
		{
			"mesh":5,
			"name":"tierra"
		},
		{
			"mesh":6,
			"name":"mercurio"
		},
		{
			"mesh":7,
			"name":"venus"
		},
		{
			"mesh":8,
			"name":"marte"
		},
		{
			"mesh":9,
			"name":"pluton"
		}
	],
	"materials":[
		{
			"doubleSided":true,
			"emissiveFactor":[
				1,
				1,
				1
			],
			"emissiveTexture":{
				"index":0
			},
			"name":"SOLMAT",
			"pbrMetallicRoughness":{
				"baseColorTexture":{
					"index":1
				},
				"metallicFactor":0,
				"roughnessFactor":0.5
			}
		},
		{
			"doubleSided":true,
			"name":"JUPITERMAT",
			"pbrMetallicRoughness":{
				"baseColorTexture":{
					"index":2
				},
				"metallicFactor":0,
				"roughnessFactor":0.5
			}
		},
		{
			"doubleSided":true,
			"name":"SATURNOMAT",
			"pbrMetallicRoughness":{
				"baseColorTexture":{
					"index":3
				},
				"metallicFactor":0,
				"roughnessFactor":0.5
			}
		},
		{
			"doubleSided":true,
			"name":"URANOMAT",
			"pbrMetallicRoughness":{
				"baseColorFactor":[
					0.24619942903518677,
					0.4620773196220398,
					0.4969331622123718,
					1
				],
				"metallicFactor":0,
				"roughnessFactor":0.5
			}
		},
		{
			"doubleSided":true,
			"name":"NEPTUNOMAT",
			"pbrMetallicRoughness":{
				"baseColorFactor":[
					0.025186533108353615,
					0.04231137037277222,
					0.25818297266960144,
					1
				],
				"metallicFactor":0,
				"roughnessFactor":0.5
			}
		},
		{
			"doubleSided":true,
			"name":"TIERRAMAT",
			"pbrMetallicRoughness":{
				"baseColorTexture":{
					"index":4
				},
				"metallicFactor":0,
				"roughnessFactor":0.5
			}
		},
		{
			"doubleSided":true,
			"name":"MERCURIOMAT",
			"pbrMetallicRoughness":{
				"baseColorFactor":[
					0.2826613783836365,
					0.2826613783836365,
					0.2826613783836365,
					1
				],
				"metallicFactor":0,
				"roughnessFactor":0.5
			}
		},
		{
			"doubleSided":true,
			"name":"VENUSMAT",
			"pbrMetallicRoughness":{
				"baseColorFactor":[
					0.7529380321502686,
					0.48515039682388306,
					0.19461794197559357,
					1
				],
				"metallicFactor":0,
				"roughnessFactor":0.5
			}
		},
		{
			"doubleSided":true,
			"name":"MARTEMAT",
			"pbrMetallicRoughness":{
				"baseColorFactor":[
					0.6938680410385132,
					0.14995987713336945,
					0.05951130390167236,
					1
				],
				"metallicFactor":0,
				"roughnessFactor":0.5
			}
		},
		{
			"doubleSided":true,
			"name":"PLUTONMAT",
			"pbrMetallicRoughness":{
				"baseColorFactor":[
					0.22591793537139893,
					0.27509427070617676,
					0.3290278911590576,
					1
				],
				"metallicFactor":0,
				"roughnessFactor":0.5
			}
		}
	],
	"meshes":[
		{
			"name":"Sphere",
			"primitives":[
				{
					"attributes":{
						"POSITION":0,
						"NORMAL":1,
						"TEXCOORD_0":2
					},
					"indices":3,
					"material":0
				}
			]
		},
		{
			"name":"Sphere.001",
			"primitives":[
				{
					"attributes":{
						"POSITION":4,
						"NORMAL":5,
						"TEXCOORD_0":6
					},
					"indices":7,
					"material":1
				}
			]
		},
		{
			"name":"Sphere.002",
			"primitives":[
				{
					"attributes":{
						"POSITION":8,
						"NORMAL":9,
						"TEXCOORD_0":10
					},
					"indices":11,
					"material":2
				}
			]
		},
		{
			"name":"Sphere.003",
			"primitives":[
				{
					"attributes":{
						"POSITION":12,
						"NORMAL":13,
						"TEXCOORD_0":14
					},
					"indices":15,
					"material":3
				}
			]
		},
		{
			"name":"Sphere.004",
			"primitives":[
				{
					"attributes":{
						"POSITION":16,
						"NORMAL":17,
						"TEXCOORD_0":18
					},
					"indices":19,
					"material":4
				}
			]
		},
		{
			"name":"Sphere.005",
			"primitives":[
				{
					"attributes":{
						"POSITION":20,
						"NORMAL":21,
						"TEXCOORD_0":22
					},
					"indices":23,
					"material":5
				}
			]
		},
		{
			"name":"Sphere.006",
			"primitives":[
				{
					"attributes":{
						"POSITION":24,
						"NORMAL":25,
						"TEXCOORD_0":26
					},
					"indices":27,
					"material":6
				}
			]
		},
		{
			"name":"Sphere.007",
			"primitives":[
				{
					"attributes":{
						"POSITION":28,
						"NORMAL":29,
						"TEXCOORD_0":30
					},
					"indices":31,
					"material":7
				}
			]
		},
		{
			"name":"Sphere.008",
			"primitives":[
				{
					"attributes":{
						"POSITION":32,
						"NORMAL":33,
						"TEXCOORD_0":34
					},
					"indices":35,
					"material":8
				}
			]
		},
		{
			"name":"Sphere.009",
			"primitives":[
				{
					"attributes":{
						"POSITION":36,
						"NORMAL":37,
						"TEXCOORD_0":38
					},
					"indices":39,
					"material":9
				}
			]
		}
	],
	"textures":[
		{
			"sampler":0,
			"source":0
		},
		{
			"sampler":0,
			"source":0
		},
		{
			"sampler":0,
			"source":1
		},
		{
			"sampler":0,
			"source":2
		},
		{
			"sampler":0,
			"source":3
		}
	],
	"images":[
		{
			"mimeType":"image/jpeg",
			"name":"2k_sun",
			"uri":"2k_sun.jpg"
		},
		{
			"mimeType":"image/jpeg",
			"name":"2k_jupiter",
			"uri":"2k_jupiter.jpg"
		},
		{
			"mimeType":"image/jpeg",
			"name":"2k_saturn",
			"uri":"2k_saturn.jpg"
		},
		{
			"mimeType":"image/jpeg",
			"name":"2k_earth_daymap",
			"uri":"2k_earth_daymap.jpg"
		}
	],
	"accessors":[
		{
			"bufferView":0,
			"componentType":5126,
			"count":1984,
			"max":[
				0.09999995678663254,
				0.10000000149011612,
				0.09999992698431015
			],
			"min":[
				-0.09999990463256836,
				-0.10000000149011612,
				-0.10000000149011612
			],
			"type":"VEC3"
		},
		{
			"bufferView":1,
			"componentType":5126,
			"count":1984,
			"type":"VEC3"
		},
		{
			"bufferView":2,
			"componentType":5126,
			"count":1984,
			"type":"VEC2"
		},
		{
			"bufferView":3,
			"componentType":5123,
			"count":2880,
			"type":"SCALAR"
		},
		{
			"bufferView":4,
			"componentType":5126,
			"count":1984,
			"max":[
				0.19014300405979156,
				0.00913784559816122,
				0.009137842804193497
			],
			"min":[
				0.17186731100082397,
				-0.00913784559816122,
				-0.00913784559816122
			],
			"type":"VEC3"
		},
		{
			"bufferView":5,
			"componentType":5126,
			"count":1984,
			"type":"VEC3"
		},
		{
			"bufferView":6,
			"componentType":5126,
			"count":1984,
			"type":"VEC2"
		},
		{
			"bufferView":7,
			"componentType":5123,
			"count":2880,
			"type":"SCALAR"
		},
		{
			"bufferView":8,
			"componentType":5126,
			"count":2368,
			"max":[
				0.24265190958976746,
				0.007675525266677141,
				0.011315754614770412
			],
			"min":[
				0.22001902759075165,
				-0.007675525266677141,
				-0.011317749507725239
			],
			"type":"VEC3"
		},
		{
			"bufferView":9,
			"componentType":5126,
			"count":2368,
			"type":"VEC3"
		},
		{
			"bufferView":10,
			"componentType":5126,
			"count":2368,
			"type":"VEC2"
		},
		{
			"bufferView":11,
			"componentType":5123,
			"count":3648,
			"type":"SCALAR"
		},
		{
			"bufferView":12,
			"componentType":5126,
			"count":1984,
			"max":[
				0.2544236481189728,
				0.0035733268596231937,
				0.003573325229808688
			],
			"min":[
				0.24727700650691986,
				-0.0035733268596231937,
				-0.003573327325284481
			],
			"type":"VEC3"
		},
		{
			"bufferView":13,
			"componentType":5126,
			"count":1984,
			"type":"VEC3"
		},
		{
			"bufferView":14,
			"componentType":5126,
			"count":1984,
			"type":"VEC2"
		},
		{
			"bufferView":15,
			"componentType":5123,
			"count":2880,
			"type":"SCALAR"
		},
		{
			"bufferView":16,
			"componentType":5126,
			"count":1984,
			"max":[
				0.26991328597068787,
				0.003132873447611928,
				0.0031328722834587097
			],
			"min":[
				0.26364755630493164,
				-0.003132873447611928,
				-0.003132873447611928
			],
			"type":"VEC3"
		},
		{
			"bufferView":17,
			"componentType":5126,
			"count":1984,
			"type":"VEC3"
		},
		{
			"bufferView":18,
			"componentType":5126,
			"count":1984,
			"type":"VEC2"
		},
		{
			"bufferView":19,
			"componentType":5123,
			"count":2880,
			"type":"SCALAR"
		},
		{
			"bufferView":20,
			"componentType":5126,
			"count":1984,
			"max":[
				0.14749768376350403,
				0.0013818235602229834,
				0.0013818220468237996
			],
			"min":[
				0.14473402500152588,
				-0.0013818235602229834,
				-0.0013818234438076615
			],
			"type":"VEC3"
		},
		{
			"bufferView":21,
			"componentType":5126,
			"count":1984,
			"type":"VEC3"
		},
		{
			"bufferView":22,
			"componentType":5126,
			"count":1984,
			"type":"VEC2"
		},
		{
			"bufferView":23,
			"componentType":5123,
			"count":2880,
			"type":"SCALAR"
		},
		{
			"bufferView":24,
			"componentType":5126,
			"count":1984,
			"max":[
				0.11986949294805527,
				0.0006922860629856586,
				0.000692285830155015
			],
			"min":[
				0.11848493665456772,
				-0.0006922860629856586,
				-0.0006922860047779977
			],
			"type":"VEC3"
		},
		{
			"bufferView":25,
			"componentType":5126,
			"count":1984,
			"type":"VEC3"
		},
		{
			"bufferView":26,
			"componentType":5126,
			"count":1984,
			"type":"VEC2"
		},
		{
			"bufferView":27,
			"componentType":5123,
			"count":2880,
			"type":"SCALAR"
		},
		{
			"bufferView":28,
			"componentType":5126,
			"count":1984,
			"max":[
				0.1335647851228714,
				0.0009095831774175167,
				0.0009095832356251776
			],
			"min":[
				0.1317456215620041,
				-0.0009095831774175167,
				-0.0009095845161937177
			],
			"type":"VEC3"
		},
		{
			"bufferView":29,
			"componentType":5126,
			"count":1984,
			"type":"VEC3"
		},
		{
			"bufferView":30,
			"componentType":5126,
			"count":1984,
			"type":"VEC2"
		},
		{
			"bufferView":31,
			"componentType":5123,
			"count":2880,
			"type":"SCALAR"
		},
		{
			"bufferView":32,
			"componentType":5126,
			"count":1984,
			"max":[
				0.1601603925228119,
				0.0008292695274576545,
				0.0008292690035887063
			],
			"min":[
				0.15850183367729187,
				-0.0008292695274576545,
				-0.0008292697020806372
			],
			"type":"VEC3"
		},
		{
			"bufferView":33,
			"componentType":5126,
			"count":1984,
			"type":"VEC3"
		},
		{
			"bufferView":34,
			"componentType":5126,
			"count":1984,
			"type":"VEC2"
		},
		{
			"bufferView":35,
			"componentType":5123,
			"count":2880,
			"type":"SCALAR"
		},
		{
			"bufferView":36,
			"componentType":5126,
			"count":1984,
			"max":[
				0.28540101647377014,
				0.0006239397916942835,
				0.0006239392678253353
			],
			"min":[
				0.2841531038284302,
				-0.0006239397916942835,
				-0.0006239399663172662
			],
			"type":"VEC3"
		},
		{
			"bufferView":37,
			"componentType":5126,
			"count":1984,
			"type":"VEC3"
		},
		{
			"bufferView":38,
			"componentType":5126,
			"count":1984,
			"type":"VEC2"
		},
		{
			"bufferView":39,
			"componentType":5123,
			"count":2880,
			"type":"SCALAR"
		}
	],
	"bufferViews":[
		{
			"buffer":0,
			"byteLength":23808,
			"byteOffset":0,
			"target":34962
		},
		{
			"buffer":0,
			"byteLength":23808,
			"byteOffset":23808,
			"target":34962
		},
		{
			"buffer":0,
			"byteLength":15872,
			"byteOffset":47616,
			"target":34962
		},
		{
			"buffer":0,
			"byteLength":5760,
			"byteOffset":63488,
			"target":34963
		},
		{
			"buffer":0,
			"byteLength":23808,
			"byteOffset":69248,
			"target":34962
		},
		{
			"buffer":0,
			"byteLength":23808,
			"byteOffset":93056,
			"target":34962
		},
		{
			"buffer":0,
			"byteLength":15872,
			"byteOffset":116864,
			"target":34962
		},
		{
			"buffer":0,
			"byteLength":5760,
			"byteOffset":132736,
			"target":34963
		},
		{
			"buffer":0,
			"byteLength":28416,
			"byteOffset":138496,
			"target":34962
		},
		{
			"buffer":0,
			"byteLength":28416,
			"byteOffset":166912,
			"target":34962
		},
		{
			"buffer":0,
			"byteLength":18944,
			"byteOffset":195328,
			"target":34962
		},
		{
			"buffer":0,
			"byteLength":7296,
			"byteOffset":214272,
			"target":34963
		},
		{
			"buffer":0,
			"byteLength":23808,
			"byteOffset":221568,
			"target":34962
		},
		{
			"buffer":0,
			"byteLength":23808,
			"byteOffset":245376,
			"target":34962
		},
		{
			"buffer":0,
			"byteLength":15872,
			"byteOffset":269184,
			"target":34962
		},
		{
			"buffer":0,
			"byteLength":5760,
			"byteOffset":285056,
			"target":34963
		},
		{
			"buffer":0,
			"byteLength":23808,
			"byteOffset":290816,
			"target":34962
		},
		{
			"buffer":0,
			"byteLength":23808,
			"byteOffset":314624,
			"target":34962
		},
		{
			"buffer":0,
			"byteLength":15872,
			"byteOffset":338432,
			"target":34962
		},
		{
			"buffer":0,
			"byteLength":5760,
			"byteOffset":354304,
			"target":34963
		},
		{
			"buffer":0,
			"byteLength":23808,
			"byteOffset":360064,
			"target":34962
		},
		{
			"buffer":0,
			"byteLength":23808,
			"byteOffset":383872,
			"target":34962
		},
		{
			"buffer":0,
			"byteLength":15872,
			"byteOffset":407680,
			"target":34962
		},
		{
			"buffer":0,
			"byteLength":5760,
			"byteOffset":423552,
			"target":34963
		},
		{
			"buffer":0,
			"byteLength":23808,
			"byteOffset":429312,
			"target":34962
		},
		{
			"buffer":0,
			"byteLength":23808,
			"byteOffset":453120,
			"target":34962
		},
		{
			"buffer":0,
			"byteLength":15872,
			"byteOffset":476928,
			"target":34962
		},
		{
			"buffer":0,
			"byteLength":5760,
			"byteOffset":492800,
			"target":34963
		},
		{
			"buffer":0,
			"byteLength":23808,
			"byteOffset":498560,
			"target":34962
		},
		{
			"buffer":0,
			"byteLength":23808,
			"byteOffset":522368,
			"target":34962
		},
		{
			"buffer":0,
			"byteLength":15872,
			"byteOffset":546176,
			"target":34962
		},
		{
			"buffer":0,
			"byteLength":5760,
			"byteOffset":562048,
			"target":34963
		},
		{
			"buffer":0,
			"byteLength":23808,
			"byteOffset":567808,
			"target":34962
		},
		{
			"buffer":0,
			"byteLength":23808,
			"byteOffset":591616,
			"target":34962
		},
		{
			"buffer":0,
			"byteLength":15872,
			"byteOffset":615424,
			"target":34962
		},
		{
			"buffer":0,
			"byteLength":5760,
			"byteOffset":631296,
			"target":34963
		},
		{
			"buffer":0,
			"byteLength":23808,
			"byteOffset":637056,
			"target":34962
		},
		{
			"buffer":0,
			"byteLength":23808,
			"byteOffset":660864,
			"target":34962
		},
		{
			"buffer":0,
			"byteLength":15872,
			"byteOffset":684672,
			"target":34962
		},
		{
			"buffer":0,
			"byteLength":5760,
			"byteOffset":700544,
			"target":34963
		}
	],
	"samplers":[
		{
			"magFilter":9729,
			"minFilter":9987
		}
	],
	"buffers":[
		{
			"byteLength":706304,
			"uri":"sistema1.bin"
		}
	]
}
