{
	"asset":{
		"generator":"Khronos glTF Blender I/O v4.1.63",
		"version":"2.0"
	},
	"scene":0,
	"scenes":[
		{
			"extras":{
				"uuid":"b6b97072-a69c-48b4-9304-ed731e06ebe4",
				"assets reported":{},
				"quadwild_props":{},
				"quadpatches_props":{}
			},
			"name":"Scene",
			"nodes":[
				0,
				1,
				2,
				3,
				4,
				5,
				6,
				7,
				8,
				9,
				10,
				11,
				12,
				13,
				14,
				15,
				16,
				17,
				18,
				19
			]
		}
	],
	"nodes":[
		{
			"name":"Empty",
			"translation":[
				0.24638570845127106,
				0,
				0.010699508711695671
			]
		},
		{
			"mesh":0,
			"name":"sol"
		},
		{
			"mesh":1,
			"name":"Jupiter",
			"rotation":[
				0,
				0.7179960012435913,
				0,
				0.6960472464561462
			],
			"translation":[
				0.005671767517924309,
				0,
				0.18067756295204163
			]
		},
		{
			"mesh":2,
			"name":"saturno",
			"rotation":[
				0,
				0.715831995010376,
				0,
				0.6982725858688354
			],
			"translation":[
				0.005800039507448673,
				0,
				0.23104962706565857
			]
		},
		{
			"mesh":3,
			"name":"urano",
			"rotation":[
				0,
				0.7244465947151184,
				0,
				0.6893309950828552
			],
			"translation":[
				0.012571626342833042,
				0,
				0.2499801069498062
			]
		},
		{
			"mesh":4,
			"name":"neptuno",
			"rotation":[
				0,
				0.7133502960205078,
				0,
				0.7008076310157776
			],
			"translation":[
				0.004776762332767248,
				0,
				0.2665296792984009
			]
		},
		{
			"mesh":5,
			"name":"tierra",
			"rotation":[
				0,
				0.7179960012435913,
				0,
				0.6960472464561462
			],
			"translation":[
				0.004579800646752119,
				0,
				0.14589229226112366
			]
		},
		{
			"mesh":6,
			"name":"mercurio",
			"rotation":[
				0,
				0.715831995010376,
				0,
				0.6982725858688354
			],
			"translation":[
				0.002991374582052231,
				0,
				0.11916401982307434
			]
		},
		{
			"mesh":7,
			"name":"venus",
			"rotation":[
				0,
				0.7244465947151184,
				0,
				0.6893309950828552
			],
			"translation":[
				0.006650690920650959,
				0,
				0.13224545121192932
			]
		},
		{
			"mesh":8,
			"name":"marte",
			"rotation":[
				0,
				0.7143853902816772,
				0,
				0.6997525691986084
			],
			"translation":[
				0.00332761206664145,
				0,
				0.15911781787872314
			]
		},
		{
			"mesh":9,
			"name":"pluton",
			"rotation":[
				0,
				0.7179960012435913,
				0,
				0.6960472464561462
			],
			"translation":[
				0.00892056617885828,
				0,
				0.284170001745224
			]
		},
		{
			"name":"B\u00e9zierCircle",
			"scale":[
				0.1193653792142868,
				0.1193653792142868,
				0.1193653792142868
			]
		},
		{
			"name":"B\u00e9zierCircle.001",
			"scale":[
				0.13269314169883728,
				0.13269314169883728,
				0.13269314169883728
			]
		},
		{
			"name":"B\u00e9zierCircle.002",
			"scale":[
				0.14620058238506317,
				0.14620058238506317,
				0.14620058238506317
			]
		},
		{
			"name":"B\u00e9zierCircle.003",
			"scale":[
				0.15934181213378906,
				0.15934181213378906,
				0.15934181213378906
			]
		},
		{
			"name":"B\u00e9zierCircle.004",
			"scale":[
				0.1810593605041504,
				0.1810593605041504,
				0.1810593605041504
			]
		},
		{
			"name":"B\u00e9zierCircle.005",
			"scale":[
				0.23144005239009857,
				0.23144005239009857,
				0.23144005239009857
			]
		},
		{
			"name":"B\u00e9zierCircle.006",
			"scale":[
				0.250826358795166,
				0.250826358795166,
				0.250826358795166
			]
		},
		{
			"name":"B\u00e9zierCircle.007",
			"scale":[
				0.2668512165546417,
				0.2668512165546417,
				0.2668512165546417
			]
		},
		{
			"name":"B\u00e9zierCircle.008",
			"scale":[
				0.28477048873901367,
				0.28477048873901367,
				0.28477048873901367
			]
		}
	],
	"animations":[
		{
			"channels":[
				{
					"sampler":0,
					"target":{
						"node":7,
						"path":"translation"
					}
				},
				{
					"sampler":1,
					"target":{
						"node":7,
						"path":"rotation"
					}
				},
				{
					"sampler":2,
					"target":{
						"node":7,
						"path":"scale"
					}
				}
			],
			"name":"mercurioAction",
			"samplers":[
				{
					"input":40,
					"interpolation":"LINEAR",
					"output":41
				},
				{
					"input":40,
					"interpolation":"LINEAR",
					"output":42
				},
				{
					"input":40,
					"interpolation":"LINEAR",
					"output":43
				}
			]
		}
	],
	"materials":[
		{
			"doubleSided":true,
			"emissiveFactor":[
				1,
				1,
				1
			],
			"emissiveTexture":{
				"index":0
			},
			"name":"SOLMAT",
			"pbrMetallicRoughness":{
				"baseColorTexture":{
					"index":1
				},
				"metallicFactor":0,
				"roughnessFactor":0.5
			}
		},
		{
			"doubleSided":true,
			"name":"JUPITERMAT",
			"pbrMetallicRoughness":{
				"baseColorTexture":{
					"index":2
				},
				"metallicFactor":0,
				"roughnessFactor":0.5
			}
		},
		{
			"doubleSided":true,
			"name":"SATURNOMAT",
			"pbrMetallicRoughness":{
				"baseColorTexture":{
					"index":3
				},
				"metallicFactor":0,
				"roughnessFactor":0.5
			}
		},
		{
			"doubleSided":true,
			"name":"URANOMAT",
			"pbrMetallicRoughness":{
				"baseColorFactor":[
					0.24619942903518677,
					0.4620773196220398,
					0.4969331622123718,
					1
				],
				"metallicFactor":0,
				"roughnessFactor":0.5
			}
		},
		{
			"doubleSided":true,
			"name":"NEPTUNOMAT",
			"pbrMetallicRoughness":{
				"baseColorFactor":[
					0.025186533108353615,
					0.04231137037277222,
					0.25818297266960144,
					1
				],
				"metallicFactor":0,
				"roughnessFactor":0.5
			}
		},
		{
			"doubleSided":true,
			"name":"TIERRAMAT",
			"pbrMetallicRoughness":{
				"baseColorTexture":{
					"index":4
				},
				"metallicFactor":0,
				"roughnessFactor":0.5
			}
		},
		{
			"doubleSided":true,
			"name":"MERCURIOMAT",
			"pbrMetallicRoughness":{
				"baseColorFactor":[
					0.2826613783836365,
					0.2826613783836365,
					0.2826613783836365,
					1
				],
				"metallicFactor":0,
				"roughnessFactor":0.5
			}
		},
		{
			"doubleSided":true,
			"name":"VENUSMAT",
			"pbrMetallicRoughness":{
				"baseColorFactor":[
					0.7529380321502686,
					0.48515039682388306,
					0.19461794197559357,
					1
				],
				"metallicFactor":0,
				"roughnessFactor":0.5
			}
		},
		{
			"doubleSided":true,
			"name":"MARTEMAT",
			"pbrMetallicRoughness":{
				"baseColorFactor":[
					0.6938680410385132,
					0.14995987713336945,
					0.05951130390167236,
					1
				],
				"metallicFactor":0,
				"roughnessFactor":0.5
			}
		},
		{
			"doubleSided":true,
			"name":"PLUTONMAT",
			"pbrMetallicRoughness":{
				"baseColorFactor":[
					0.22591793537139893,
					0.27509427070617676,
					0.3290278911590576,
					1
				],
				"metallicFactor":0,
				"roughnessFactor":0.5
			}
		}
	],
	"meshes":[
		{
			"name":"Sphere",
			"primitives":[
				{
					"attributes":{
						"POSITION":0,
						"NORMAL":1,
						"TEXCOORD_0":2
					},
					"indices":3,
					"material":0
				}
			]
		},
		{
			"name":"Sphere.001",
			"primitives":[
				{
					"attributes":{
						"POSITION":4,
						"NORMAL":5,
						"TEXCOORD_0":6
					},
					"indices":7,
					"material":1
				}
			]
		},
		{
			"name":"Sphere.002",
			"primitives":[
				{
					"attributes":{
						"POSITION":8,
						"NORMAL":9,
						"TEXCOORD_0":10
					},
					"indices":11,
					"material":2
				}
			]
		},
		{
			"name":"Sphere.003",
			"primitives":[
				{
					"attributes":{
						"POSITION":12,
						"NORMAL":13,
						"TEXCOORD_0":14
					},
					"indices":15,
					"material":3
				}
			]
		},
		{
			"name":"Sphere.004",
			"primitives":[
				{
					"attributes":{
						"POSITION":16,
						"NORMAL":17,
						"TEXCOORD_0":18
					},
					"indices":19,
					"material":4
				}
			]
		},
		{
			"name":"Sphere.005",
			"primitives":[
				{
					"attributes":{
						"POSITION":20,
						"NORMAL":21,
						"TEXCOORD_0":22
					},
					"indices":23,
					"material":5
				}
			]
		},
		{
			"name":"Sphere.006",
			"primitives":[
				{
					"attributes":{
						"POSITION":24,
						"NORMAL":25,
						"TEXCOORD_0":26
					},
					"indices":27,
					"material":6
				}
			]
		},
		{
			"name":"Sphere.007",
			"primitives":[
				{
					"attributes":{
						"POSITION":28,
						"NORMAL":29,
						"TEXCOORD_0":30
					},
					"indices":31,
					"material":7
				}
			]
		},
		{
			"name":"Sphere.008",
			"primitives":[
				{
					"attributes":{
						"POSITION":32,
						"NORMAL":33,
						"TEXCOORD_0":34
					},
					"indices":35,
					"material":8
				}
			]
		},
		{
			"name":"Sphere.009",
			"primitives":[
				{
					"attributes":{
						"POSITION":36,
						"NORMAL":37,
						"TEXCOORD_0":38
					},
					"indices":39,
					"material":9
				}
			]
		}
	],
	"textures":[
		{
			"sampler":0,
			"source":0
		},
		{
			"sampler":0,
			"source":0
		},
		{
			"sampler":0,
			"source":1
		},
		{
			"sampler":0,
			"source":2
		},
		{
			"sampler":0,
			"source":3
		}
	],
	"images":[
		{
			"mimeType":"image/jpeg",
			"name":"2k_sun",
			"uri":"2k_sun.jpg"
		},
		{
			"mimeType":"image/jpeg",
			"name":"2k_jupiter",
			"uri":"2k_jupiter.jpg"
		},
		{
			"mimeType":"image/jpeg",
			"name":"2k_saturn",
			"uri":"2k_saturn.jpg"
		},
		{
			"mimeType":"image/jpeg",
			"name":"2k_earth_daymap",
			"uri":"2k_earth_daymap.jpg"
		}
	],
	"accessors":[
		{
			"bufferView":0,
			"componentType":5126,
			"count":1984,
			"max":[
				0.09999995678663254,
				0.10000000149011612,
				0.09999992698431015
			],
			"min":[
				-0.09999990463256836,
				-0.10000000149011612,
				-0.10000000149011612
			],
			"type":"VEC3"
		},
		{
			"bufferView":1,
			"componentType":5126,
			"count":1984,
			"type":"VEC3"
		},
		{
			"bufferView":2,
			"componentType":5126,
			"count":1984,
			"type":"VEC2"
		},
		{
			"bufferView":3,
			"componentType":5123,
			"count":2880,
			"type":"SCALAR"
		},
		{
			"bufferView":4,
			"componentType":5126,
			"count":1984,
			"max":[
				0.009137868881225586,
				0.00913784559816122,
				0.009137842804193497
			],
			"min":[
				-0.009137824177742004,
				-0.00913784559816122,
				-0.00913784559816122
			],
			"type":"VEC3"
		},
		{
			"bufferView":5,
			"componentType":5126,
			"count":1984,
			"type":"VEC3"
		},
		{
			"bufferView":6,
			"componentType":5126,
			"count":1984,
			"type":"VEC2"
		},
		{
			"bufferView":7,
			"componentType":5123,
			"count":2880,
			"type":"SCALAR"
		},
		{
			"bufferView":8,
			"componentType":5126,
			"count":2368,
			"max":[
				0.014766037464141846,
				0.007682786788791418,
				0.014762762933969498
			],
			"min":[
				-0.01476319134235382,
				-0.007668263744562864,
				-0.014766457490622997
			],
			"type":"VEC3"
		},
		{
			"bufferView":9,
			"componentType":5126,
			"count":2368,
			"type":"VEC3"
		},
		{
			"bufferView":10,
			"componentType":5126,
			"count":2368,
			"type":"VEC2"
		},
		{
			"bufferView":11,
			"componentType":5123,
			"count":3648,
			"type":"SCALAR"
		},
		{
			"bufferView":12,
			"componentType":5126,
			"count":1984,
			"max":[
				0.0035733580589294434,
				0.0035733268596231937,
				0.003573325462639332
			],
			"min":[
				-0.003573283553123474,
				-0.0035733268596231937,
				-0.0035733270924538374
			],
			"type":"VEC3"
		},
		{
			"bufferView":13,
			"componentType":5126,
			"count":1984,
			"type":"VEC3"
		},
		{
			"bufferView":14,
			"componentType":5126,
			"count":1984,
			"type":"VEC2"
		},
		{
			"bufferView":15,
			"componentType":5123,
			"count":2880,
			"type":"SCALAR"
		},
		{
			"bufferView":16,
			"componentType":5126,
			"count":1984,
			"max":[
				0.0031329691410064697,
				0.003132873447611928,
				0.0031328725162893534
			],
			"min":[
				-0.003132760524749756,
				-0.003132873447611928,
				-0.0031328732147812843
			],
			"type":"VEC3"
		},
		{
			"bufferView":17,
			"componentType":5126,
			"count":1984,
			"type":"VEC3"
		},
		{
			"bufferView":18,
			"componentType":5126,
			"count":1984,
			"type":"VEC2"
		},
		{
			"bufferView":19,
			"componentType":5123,
			"count":2880,
			"type":"SCALAR"
		},
		{
			"bufferView":20,
			"componentType":5126,
			"count":1984,
			"max":[
				0.0013820230960845947,
				0.0013818236766383052,
				0.0013818220468237996
			],
			"min":[
				-0.0013816356658935547,
				-0.0013818234438076615,
				-0.0013818234438076615
			],
			"type":"VEC3"
		},
		{
			"bufferView":21,
			"componentType":5126,
			"count":1984,
			"type":"VEC3"
		},
		{
			"bufferView":22,
			"componentType":5126,
			"count":1984,
			"type":"VEC2"
		},
		{
			"bufferView":23,
			"componentType":5123,
			"count":2880,
			"type":"SCALAR"
		},
		{
			"bufferView":24,
			"componentType":5126,
			"count":1984,
			"max":[
				0.0006922557950019836,
				0.0006922860629856586,
				0.0006922858883626759
			],
			"min":[
				-0.0006923004984855652,
				-0.0006922860629856586,
				-0.0006922859465703368
			],
			"type":"VEC3"
		},
		{
			"bufferView":25,
			"componentType":5126,
			"count":1984,
			"type":"VEC3"
		},
		{
			"bufferView":26,
			"componentType":5126,
			"count":1984,
			"type":"VEC2"
		},
		{
			"bufferView":27,
			"componentType":5123,
			"count":2880,
			"type":"SCALAR"
		},
		{
			"bufferView":28,
			"componentType":5126,
			"count":1984,
			"max":[
				0.0009095519781112671,
				0.0009095831774175167,
				0.0009095833520404994
			],
			"min":[
				-0.0009096115827560425,
				-0.0009095831774175167,
				-0.0009095843997783959
			],
			"type":"VEC3"
		},
		{
			"bufferView":29,
			"componentType":5126,
			"count":1984,
			"type":"VEC3"
		},
		{
			"bufferView":30,
			"componentType":5126,
			"count":1984,
			"type":"VEC2"
		},
		{
			"bufferView":31,
			"componentType":5123,
			"count":2880,
			"type":"SCALAR"
		},
		{
			"bufferView":32,
			"componentType":5126,
			"count":1984,
			"max":[
				0.0008292198181152344,
				0.0008292695274576545,
				0.0008292692946270108
			],
			"min":[
				-0.0008293390274047852,
				-0.0008292695274576545,
				-0.0008292694110423326
			],
			"type":"VEC3"
		},
		{
			"bufferView":33,
			"componentType":5126,
			"count":1984,
			"type":"VEC3"
		},
		{
			"bufferView":34,
			"componentType":5126,
			"count":1984,
			"type":"VEC2"
		},
		{
			"bufferView":35,
			"componentType":5123,
			"count":2880,
			"type":"SCALAR"
		},
		{
			"bufferView":36,
			"componentType":5126,
			"count":1984,
			"max":[
				0.0006240308284759521,
				0.0006239397916942835,
				0.0006239393842406571
			],
			"min":[
				-0.0006238818168640137,
				-0.0006239397916942835,
				-0.0006239398499019444
			],
			"type":"VEC3"
		},
		{
			"bufferView":37,
			"componentType":5126,
			"count":1984,
			"type":"VEC3"
		},
		{
			"bufferView":38,
			"componentType":5126,
			"count":1984,
			"type":"VEC2"
		},
		{
			"bufferView":39,
			"componentType":5123,
			"count":2880,
			"type":"SCALAR"
		},
		{
			"bufferView":40,
			"componentType":5126,
			"count":1,
			"max":[
				0
			],
			"min":[
				0
			],
			"type":"SCALAR"
		},
		{
			"bufferView":41,
			"componentType":5126,
			"count":1,
			"type":"VEC3"
		},
		{
			"bufferView":42,
			"componentType":5126,
			"count":1,
			"type":"VEC4"
		},
		{
			"bufferView":43,
			"componentType":5126,
			"count":1,
			"type":"VEC3"
		}
	],
	"bufferViews":[
		{
			"buffer":0,
			"byteLength":23808,
			"byteOffset":0,
			"target":34962
		},
		{
			"buffer":0,
			"byteLength":23808,
			"byteOffset":23808,
			"target":34962
		},
		{
			"buffer":0,
			"byteLength":15872,
			"byteOffset":47616,
			"target":34962
		},
		{
			"buffer":0,
			"byteLength":5760,
			"byteOffset":63488,
			"target":34963
		},
		{
			"buffer":0,
			"byteLength":23808,
			"byteOffset":69248,
			"target":34962
		},
		{
			"buffer":0,
			"byteLength":23808,
			"byteOffset":93056,
			"target":34962
		},
		{
			"buffer":0,
			"byteLength":15872,
			"byteOffset":116864,
			"target":34962
		},
		{
			"buffer":0,
			"byteLength":5760,
			"byteOffset":132736,
			"target":34963
		},
		{
			"buffer":0,
			"byteLength":28416,
			"byteOffset":138496,
			"target":34962
		},
		{
			"buffer":0,
			"byteLength":28416,
			"byteOffset":166912,
			"target":34962
		},
		{
			"buffer":0,
			"byteLength":18944,
			"byteOffset":195328,
			"target":34962
		},
		{
			"buffer":0,
			"byteLength":7296,
			"byteOffset":214272,
			"target":34963
		},
		{
			"buffer":0,
			"byteLength":23808,
			"byteOffset":221568,
			"target":34962
		},
		{
			"buffer":0,
			"byteLength":23808,
			"byteOffset":245376,
			"target":34962
		},
		{
			"buffer":0,
			"byteLength":15872,
			"byteOffset":269184,
			"target":34962
		},
		{
			"buffer":0,
			"byteLength":5760,
			"byteOffset":285056,
			"target":34963
		},
		{
			"buffer":0,
			"byteLength":23808,
			"byteOffset":290816,
			"target":34962
		},
		{
			"buffer":0,
			"byteLength":23808,
			"byteOffset":314624,
			"target":34962
		},
		{
			"buffer":0,
			"byteLength":15872,
			"byteOffset":338432,
			"target":34962
		},
		{
			"buffer":0,
			"byteLength":5760,
			"byteOffset":354304,
			"target":34963
		},
		{
			"buffer":0,
			"byteLength":23808,
			"byteOffset":360064,
			"target":34962
		},
		{
			"buffer":0,
			"byteLength":23808,
			"byteOffset":383872,
			"target":34962
		},
		{
			"buffer":0,
			"byteLength":15872,
			"byteOffset":407680,
			"target":34962
		},
		{
			"buffer":0,
			"byteLength":5760,
			"byteOffset":423552,
			"target":34963
		},
		{
			"buffer":0,
			"byteLength":23808,
			"byteOffset":429312,
			"target":34962
		},
		{
			"buffer":0,
			"byteLength":23808,
			"byteOffset":453120,
			"target":34962
		},
		{
			"buffer":0,
			"byteLength":15872,
			"byteOffset":476928,
			"target":34962
		},
		{
			"buffer":0,
			"byteLength":5760,
			"byteOffset":492800,
			"target":34963
		},
		{
			"buffer":0,
			"byteLength":23808,
			"byteOffset":498560,
			"target":34962
		},
		{
			"buffer":0,
			"byteLength":23808,
			"byteOffset":522368,
			"target":34962
		},
		{
			"buffer":0,
			"byteLength":15872,
			"byteOffset":546176,
			"target":34962
		},
		{
			"buffer":0,
			"byteLength":5760,
			"byteOffset":562048,
			"target":34963
		},
		{
			"buffer":0,
			"byteLength":23808,
			"byteOffset":567808,
			"target":34962
		},
		{
			"buffer":0,
			"byteLength":23808,
			"byteOffset":591616,
			"target":34962
		},
		{
			"buffer":0,
			"byteLength":15872,
			"byteOffset":615424,
			"target":34962
		},
		{
			"buffer":0,
			"byteLength":5760,
			"byteOffset":631296,
			"target":34963
		},
		{
			"buffer":0,
			"byteLength":23808,
			"byteOffset":637056,
			"target":34962
		},
		{
			"buffer":0,
			"byteLength":23808,
			"byteOffset":660864,
			"target":34962
		},
		{
			"buffer":0,
			"byteLength":15872,
			"byteOffset":684672,
			"target":34962
		},
		{
			"buffer":0,
			"byteLength":5760,
			"byteOffset":700544,
			"target":34963
		},
		{
			"buffer":0,
			"byteLength":4,
			"byteOffset":706304
		},
		{
			"buffer":0,
			"byteLength":12,
			"byteOffset":706308
		},
		{
			"buffer":0,
			"byteLength":16,
			"byteOffset":706320
		},
		{
			"buffer":0,
			"byteLength":12,
			"byteOffset":706336
		}
	],
	"samplers":[
		{
			"magFilter":9729,
			"minFilter":9987
		}
	],
	"buffers":[
		{
			"byteLength":706348,
			"uri":"sistema3.bin"
		}
	]
}
